<?xml version="1.0" encoding="UTF-8" standalone="no"?>
<!-- This is a Stata 16.1 generated SVG file (http://www.stata.com) -->

<svg version="1.1" width="5.50in" height="4.00in" viewBox="0 0 3960 2880" xmlns="http://www.w3.org/2000/svg" xmlns:xlink="http://www.w3.org/1999/xlink">
	<desc>Stata Graph - Graph</desc>
	<rect x="0" y="0" width="3960" height="2880" style="fill:#EAF2F3;stroke:none"/>
	<rect x="0.00" y="0.00" width="3959.88" height="2880.00" style="fill:#EAF2F3"/>
	<rect x="2.88" y="2.88" width="3954.12" height="2874.24" style="fill:none;stroke:#EAF2F3;stroke-width:5.76"/>
	<rect x="390.80" y="275.35" width="3468.22" height="2213.83" style="fill:#FFFFFF"/>
	<rect x="393.68" y="278.23" width="3462.46" height="2208.07" style="fill:none;stroke:#FFFFFF;stroke-width:5.76"/>
	<line x1="390.80" y1="2425.82" x2="3859.02" y2="2425.82" style="stroke:#EAF2F3;stroke-width:8.64"/>
	<line x1="390.80" y1="1730.08" x2="3859.02" y2="1730.08" style="stroke:#EAF2F3;stroke-width:8.64"/>
	<line x1="390.80" y1="1034.46" x2="3859.02" y2="1034.46" style="stroke:#EAF2F3;stroke-width:8.64"/>
	<line x1="390.80" y1="338.71" x2="3859.02" y2="338.71" style="stroke:#EAF2F3;stroke-width:8.64"/>
	<circle cx="685.70" cy="1646.79" r="26.35" style="fill:#1A476F"/>
	<circle cx="685.70" cy="1646.79" r="22.03" style="fill:none;stroke:#1A476F;stroke-width:8.64"/>
	<circle cx="821.21" cy="605.16" r="26.35" style="fill:#1A476F"/>
	<circle cx="821.21" cy="605.16" r="22.03" style="fill:none;stroke:#1A476F;stroke-width:8.64"/>
	<circle cx="917.36" cy="471.01" r="26.35" style="fill:#1A476F"/>
	<circle cx="917.36" cy="471.01" r="22.03" style="fill:none;stroke:#1A476F;stroke-width:8.64"/>
	<circle cx="917.36" cy="1197.69" r="26.35" style="fill:#1A476F"/>
	<circle cx="917.36" cy="1197.69" r="22.03" style="fill:none;stroke:#1A476F;stroke-width:8.64"/>
	<circle cx="991.86" cy="1599.27" r="26.35" style="fill:#1A476F"/>
	<circle cx="991.86" cy="1599.27" r="22.03" style="fill:none;stroke:#1A476F;stroke-width:8.64"/>
	<circle cx="1188.25" cy="2406.39" r="26.35" style="fill:#1A476F"/>
	<circle cx="1188.25" cy="2406.39" r="22.03" style="fill:none;stroke:#1A476F;stroke-width:8.64"/>
	<circle cx="1255.32" cy="967.88" r="26.35" style="fill:#1A476F"/>
	<circle cx="1255.32" cy="967.88" r="22.03" style="fill:none;stroke:#1A476F;stroke-width:8.64"/>
	<circle cx="1311.13" cy="1348.30" r="26.35" style="fill:#1A476F"/>
	<circle cx="1311.13" cy="1348.30" r="22.03" style="fill:none;stroke:#1A476F;stroke-width:8.64"/>
	<circle cx="1311.13" cy="1477.50" r="26.35" style="fill:#1A476F"/>
	<circle cx="1311.13" cy="1477.50" r="22.03" style="fill:none;stroke:#1A476F;stroke-width:8.64"/>
	<circle cx="1486.98" cy="1466.85" r="26.35" style="fill:#1A476F"/>
	<circle cx="1486.98" cy="1466.85" r="22.03" style="fill:none;stroke:#1A476F;stroke-width:8.64"/>
	<circle cx="1529.67" cy="1061.19" r="26.35" style="fill:#1A476F"/>
	<circle cx="1529.67" cy="1061.19" r="22.03" style="fill:none;stroke:#1A476F;stroke-width:8.64"/>
	<circle cx="1529.67" cy="1634.79" r="26.35" style="fill:#1A476F"/>
	<circle cx="1529.67" cy="1634.79" r="22.03" style="fill:none;stroke:#1A476F;stroke-width:8.64"/>
	<circle cx="1642.16" cy="2072.13" r="26.35" style="fill:#1A476F"/>
	<circle cx="1642.16" cy="2072.13" r="22.03" style="fill:none;stroke:#1A476F;stroke-width:8.64"/>
	<circle cx="1678.30" cy="2122.38" r="26.35" style="fill:#1A476F"/>
	<circle cx="1678.30" cy="2122.38" r="22.03" style="fill:none;stroke:#1A476F;stroke-width:8.64"/>
	<circle cx="1710.97" cy="2146.76" r="26.35" style="fill:#1A476F"/>
	<circle cx="1710.97" cy="2146.76" r="22.03" style="fill:none;stroke:#1A476F;stroke-width:8.64"/>
	<circle cx="1838.55" cy="1859.65" r="26.35" style="fill:#1A476F"/>
	<circle cx="1838.55" cy="1859.65" r="22.03" style="fill:none;stroke:#1A476F;stroke-width:8.64"/>
	<circle cx="1864.05" cy="2001.84" r="26.35" style="fill:#1A476F"/>
	<circle cx="1864.05" cy="2001.84" r="22.03" style="fill:none;stroke:#1A476F;stroke-width:8.64"/>
	<circle cx="1922.58" cy="2236.73" r="26.35" style="fill:#1A476F"/>
	<circle cx="1922.58" cy="2236.73" r="22.03" style="fill:none;stroke:#1A476F;stroke-width:8.64"/>
	<circle cx="1934.71" cy="2207.15" r="26.35" style="fill:#1A476F"/>
	<circle cx="1934.71" cy="2207.15" r="22.03" style="fill:none;stroke:#1A476F;stroke-width:8.64"/>
	<circle cx="1887.81" cy="1997.14" r="26.35" style="fill:#1A476F"/>
	<circle cx="1887.81" cy="1997.14" r="22.03" style="fill:none;stroke:#1A476F;stroke-width:8.64"/>
	<circle cx="1989.53" cy="1814.23" r="26.35" style="fill:#1A476F"/>
	<circle cx="1989.53" cy="1814.23" r="22.03" style="fill:none;stroke:#1A476F;stroke-width:8.64"/>
	<circle cx="1996.21" cy="1650.88" r="26.35" style="fill:#1A476F"/>
	<circle cx="1996.21" cy="1650.88" r="22.03" style="fill:none;stroke:#1A476F;stroke-width:8.64"/>
	<circle cx="2051.03" cy="1925.36" r="26.35" style="fill:#1A476F"/>
	<circle cx="2051.03" cy="1925.36" r="22.03" style="fill:none;stroke:#1A476F;stroke-width:8.64"/>
	<circle cx="2053.88" cy="2200.10" r="26.35" style="fill:#1A476F"/>
	<circle cx="2053.88" cy="2200.10" r="22.03" style="fill:none;stroke:#1A476F;stroke-width:8.64"/>
	<circle cx="2059.32" cy="1357.95" r="26.35" style="fill:#1A476F"/>
	<circle cx="2059.32" cy="1357.95" r="22.03" style="fill:none;stroke:#1A476F;stroke-width:8.64"/>
	<circle cx="2080.61" cy="2102.33" r="26.35" style="fill:#1A476F"/>
	<circle cx="2080.61" cy="2102.33" r="22.03" style="fill:none;stroke:#1A476F;stroke-width:8.64"/>
	<circle cx="2100.53" cy="2008.15" r="26.35" style="fill:#1A476F"/>
	<circle cx="2100.53" cy="2008.15" r="22.03" style="fill:none;stroke:#1A476F;stroke-width:8.64"/>
	<circle cx="2126.15" cy="1765.97" r="26.35" style="fill:#1A476F"/>
	<circle cx="2126.15" cy="1765.97" r="22.03" style="fill:none;stroke:#1A476F;stroke-width:8.64"/>
	<circle cx="2217.85" cy="2174.97" r="26.35" style="fill:#1A476F"/>
	<circle cx="2217.85" cy="2174.97" r="22.03" style="fill:none;stroke:#1A476F;stroke-width:8.64"/>
	<circle cx="2219.46" cy="2056.05" r="26.35" style="fill:#1A476F"/>
	<circle cx="2219.46" cy="2056.05" r="22.03" style="fill:none;stroke:#1A476F;stroke-width:8.64"/>
	<circle cx="2239.26" cy="1826.85" r="26.35" style="fill:#1A476F"/>
	<circle cx="2239.26" cy="1826.85" r="22.03" style="fill:none;stroke:#1A476F;stroke-width:8.64"/>
	<circle cx="2247.18" cy="1484.55" r="26.35" style="fill:#1A476F"/>
	<circle cx="2247.18" cy="1484.55" r="22.03" style="fill:none;stroke:#1A476F;stroke-width:8.64"/>
	<circle cx="2256.46" cy="1652.24" r="26.35" style="fill:#1A476F"/>
	<circle cx="2256.46" cy="1652.24" r="22.03" style="fill:none;stroke:#1A476F;stroke-width:8.64"/>
	<circle cx="2277.00" cy="1704.83" r="26.35" style="fill:#1A476F"/>
	<circle cx="2277.00" cy="1704.83" r="22.03" style="fill:none;stroke:#1A476F;stroke-width:8.64"/>
	<circle cx="2278.49" cy="1779.33" r="26.35" style="fill:#1A476F"/>
	<circle cx="2278.49" cy="1779.33" r="22.03" style="fill:none;stroke:#1A476F;stroke-width:8.64"/>
	<circle cx="2303.11" cy="1899.50" r="26.35" style="fill:#1A476F"/>
	<circle cx="2303.11" cy="1899.50" r="22.03" style="fill:none;stroke:#1A476F;stroke-width:8.64"/>
	<circle cx="2335.78" cy="1516.36" r="26.35" style="fill:#1A476F"/>
	<circle cx="2335.78" cy="1516.36" r="22.03" style="fill:none;stroke:#1A476F;stroke-width:8.64"/>
	<circle cx="2348.78" cy="2089.09" r="26.35" style="fill:#1A476F"/>
	<circle cx="2348.78" cy="2089.09" r="22.03" style="fill:none;stroke:#1A476F;stroke-width:8.64"/>
	<circle cx="2348.78" cy="1888.73" r="26.35" style="fill:#1A476F"/>
	<circle cx="2348.78" cy="1888.73" r="22.03" style="fill:none;stroke:#1A476F;stroke-width:8.64"/>
	<circle cx="2354.47" cy="1914.35" r="26.35" style="fill:#1A476F"/>
	<circle cx="2354.47" cy="1914.35" r="22.03" style="fill:none;stroke:#1A476F;stroke-width:8.64"/>
	<circle cx="2358.92" cy="1617.59" r="26.35" style="fill:#1A476F"/>
	<circle cx="2358.92" cy="1617.59" r="22.03" style="fill:none;stroke:#1A476F;stroke-width:8.64"/>
	<circle cx="2385.78" cy="1902.47" r="26.35" style="fill:#1A476F"/>
	<circle cx="2385.78" cy="1902.47" r="22.03" style="fill:none;stroke:#1A476F;stroke-width:8.64"/>
	<circle cx="2394.93" cy="2061.24" r="26.35" style="fill:#1A476F"/>
	<circle cx="2394.93" cy="2061.24" r="22.03" style="fill:none;stroke:#1A476F;stroke-width:8.64"/>
	<circle cx="2399.88" cy="1955.56" r="26.35" style="fill:#1A476F"/>
	<circle cx="2399.88" cy="1955.56" r="22.03" style="fill:none;stroke:#1A476F;stroke-width:8.64"/>
	<circle cx="2414.36" cy="2017.19" r="26.35" style="fill:#1A476F"/>
	<circle cx="2414.36" cy="2017.19" r="22.03" style="fill:none;stroke:#1A476F;stroke-width:8.64"/>
	<circle cx="2414.36" cy="1991.45" r="26.35" style="fill:#1A476F"/>
	<circle cx="2414.36" cy="1991.45" r="22.03" style="fill:none;stroke:#1A476F;stroke-width:8.64"/>
	<circle cx="2469.31" cy="1748.77" r="26.35" style="fill:#1A476F"/>
	<circle cx="2469.31" cy="1748.77" r="22.03" style="fill:none;stroke:#1A476F;stroke-width:8.64"/>
	<circle cx="2472.53" cy="1518.46" r="26.35" style="fill:#1A476F"/>
	<circle cx="2472.53" cy="1518.46" r="22.03" style="fill:none;stroke:#1A476F;stroke-width:8.64"/>
	<circle cx="2500.00" cy="1855.69" r="26.35" style="fill:#1A476F"/>
	<circle cx="2500.00" cy="1855.69" r="22.03" style="fill:none;stroke:#1A476F;stroke-width:8.64"/>
	<circle cx="2519.92" cy="1816.21" r="26.35" style="fill:#1A476F"/>
	<circle cx="2519.92" cy="1816.21" r="22.03" style="fill:none;stroke:#1A476F;stroke-width:8.64"/>
	<circle cx="2541.21" cy="1792.20" r="26.35" style="fill:#1A476F"/>
	<circle cx="2541.21" cy="1792.20" r="22.03" style="fill:none;stroke:#1A476F;stroke-width:8.64"/>
	<circle cx="2562.61" cy="1866.58" r="26.35" style="fill:#1A476F"/>
	<circle cx="2562.61" cy="1866.58" r="22.03" style="fill:none;stroke:#1A476F;stroke-width:8.64"/>
	<circle cx="2570.41" cy="1929.94" r="26.35" style="fill:#1A476F"/>
	<circle cx="2570.41" cy="1929.94" r="22.03" style="fill:none;stroke:#1A476F;stroke-width:8.64"/>
	<circle cx="2572.14" cy="1990.70" r="26.35" style="fill:#1A476F"/>
	<circle cx="2572.14" cy="1990.70" r="22.03" style="fill:none;stroke:#1A476F;stroke-width:8.64"/>
	<circle cx="2587.12" cy="1953.21" r="26.35" style="fill:#1A476F"/>
	<circle cx="2587.12" cy="1953.21" r="22.03" style="fill:none;stroke:#1A476F;stroke-width:8.64"/>
	<circle cx="2629.07" cy="1934.15" r="26.35" style="fill:#1A476F"/>
	<circle cx="2629.07" cy="1934.15" r="22.03" style="fill:none;stroke:#1A476F;stroke-width:8.64"/>
	<circle cx="2641.32" cy="1760.40" r="26.35" style="fill:#1A476F"/>
	<circle cx="2641.32" cy="1760.40" r="22.03" style="fill:none;stroke:#1A476F;stroke-width:8.64"/>
	<circle cx="2652.09" cy="1728.97" r="26.35" style="fill:#1A476F"/>
	<circle cx="2652.09" cy="1728.97" r="22.03" style="fill:none;stroke:#1A476F;stroke-width:8.64"/>
	<circle cx="2662.61" cy="1892.82" r="26.35" style="fill:#1A476F"/>
	<circle cx="2662.61" cy="1892.82" r="22.03" style="fill:none;stroke:#1A476F;stroke-width:8.64"/>
	<circle cx="2685.75" cy="2024.98" r="26.35" style="fill:#1A476F"/>
	<circle cx="2685.75" cy="2024.98" r="22.03" style="fill:none;stroke:#1A476F;stroke-width:8.64"/>
	<circle cx="2687.85" cy="1661.89" r="26.35" style="fill:#1A476F"/>
	<circle cx="2687.85" cy="1661.89" r="22.03" style="fill:none;stroke:#1A476F;stroke-width:8.64"/>
	<circle cx="2691.07" cy="1726.86" r="26.35" style="fill:#1A476F"/>
	<circle cx="2691.07" cy="1726.86" r="22.03" style="fill:none;stroke:#1A476F;stroke-width:8.64"/>
	<circle cx="2692.30" cy="1954.32" r="26.35" style="fill:#1A476F"/>
	<circle cx="2692.30" cy="1954.32" r="22.03" style="fill:none;stroke:#1A476F;stroke-width:8.64"/>
	<circle cx="2710.00" cy="1983.28" r="26.35" style="fill:#1A476F"/>
	<circle cx="2710.00" cy="1983.28" r="22.03" style="fill:none;stroke:#1A476F;stroke-width:8.64"/>
	<circle cx="2711.98" cy="1962.12" r="26.35" style="fill:#1A476F"/>
	<circle cx="2711.98" cy="1962.12" r="22.03" style="fill:none;stroke:#1A476F;stroke-width:8.64"/>
	<circle cx="2730.42" cy="1778.47" r="26.35" style="fill:#1A476F"/>
	<circle cx="2730.42" cy="1778.47" r="22.03" style="fill:none;stroke:#1A476F;stroke-width:8.64"/>
	<circle cx="2731.91" cy="1709.41" r="26.35" style="fill:#1A476F"/>
	<circle cx="2731.91" cy="1709.41" r="22.03" style="fill:none;stroke:#1A476F;stroke-width:8.64"/>
	<circle cx="2735.99" cy="1687.51" r="26.35" style="fill:#1A476F"/>
	<circle cx="2735.99" cy="1687.51" r="22.03" style="fill:none;stroke:#1A476F;stroke-width:8.64"/>
	<circle cx="2757.03" cy="1762.38" r="26.35" style="fill:#1A476F"/>
	<circle cx="2757.03" cy="1762.38" r="22.03" style="fill:none;stroke:#1A476F;stroke-width:8.64"/>
	<circle cx="2759.38" cy="2042.56" r="26.35" style="fill:#1A476F"/>
	<circle cx="2759.38" cy="2042.56" r="22.03" style="fill:none;stroke:#1A476F;stroke-width:8.64"/>
	<circle cx="2762.35" cy="1750.99" r="26.35" style="fill:#1A476F"/>
	<circle cx="2762.35" cy="1750.99" r="22.03" style="fill:none;stroke:#1A476F;stroke-width:8.64"/>
	<circle cx="2793.66" cy="2127.33" r="26.35" style="fill:#1A476F"/>
	<circle cx="2793.66" cy="2127.33" r="22.03" style="fill:none;stroke:#1A476F;stroke-width:8.64"/>
	<circle cx="2796.87" cy="1908.16" r="26.35" style="fill:#1A476F"/>
	<circle cx="2796.87" cy="1908.16" r="22.03" style="fill:none;stroke:#1A476F;stroke-width:8.64"/>
	<circle cx="2799.60" cy="1875.98" r="26.35" style="fill:#1A476F"/>
	<circle cx="2799.60" cy="1875.98" r="22.03" style="fill:none;stroke:#1A476F;stroke-width:8.64"/>
	<circle cx="2800.83" cy="1834.40" r="26.35" style="fill:#1A476F"/>
	<circle cx="2800.83" cy="1834.40" r="22.03" style="fill:none;stroke:#1A476F;stroke-width:8.64"/>
	<circle cx="2805.29" cy="1693.82" r="26.35" style="fill:#1A476F"/>
	<circle cx="2805.29" cy="1693.82" r="22.03" style="fill:none;stroke:#1A476F;stroke-width:8.64"/>
	<circle cx="2810.86" cy="1799.26" r="26.35" style="fill:#1A476F"/>
	<circle cx="2810.86" cy="1799.26" r="22.03" style="fill:none;stroke:#1A476F;stroke-width:8.64"/>
	<circle cx="2813.70" cy="1658.30" r="26.35" style="fill:#1A476F"/>
	<circle cx="2813.70" cy="1658.30" r="22.03" style="fill:none;stroke:#1A476F;stroke-width:8.64"/>
	<circle cx="2814.82" cy="2019.79" r="26.35" style="fill:#1A476F"/>
	<circle cx="2814.82" cy="2019.79" r="22.03" style="fill:none;stroke:#1A476F;stroke-width:8.64"/>
	<circle cx="2827.44" cy="1808.66" r="26.35" style="fill:#1A476F"/>
	<circle cx="2827.44" cy="1808.66" r="22.03" style="fill:none;stroke:#1A476F;stroke-width:8.64"/>
	<circle cx="2844.64" cy="1786.76" r="26.35" style="fill:#1A476F"/>
	<circle cx="2844.64" cy="1786.76" r="22.03" style="fill:none;stroke:#1A476F;stroke-width:8.64"/>
	<circle cx="2847.74" cy="1737.75" r="26.35" style="fill:#1A476F"/>
	<circle cx="2847.74" cy="1737.75" r="22.03" style="fill:none;stroke:#1A476F;stroke-width:8.64"/>
	<circle cx="2847.49" cy="1919.55" r="26.35" style="fill:#1A476F"/>
	<circle cx="2847.49" cy="1919.55" r="22.03" style="fill:none;stroke:#1A476F;stroke-width:8.64"/>
	<circle cx="2857.88" cy="1855.44" r="26.35" style="fill:#1A476F"/>
	<circle cx="2857.88" cy="1855.44" r="22.03" style="fill:none;stroke:#1A476F;stroke-width:8.64"/>
	<circle cx="2868.28" cy="1624.76" r="26.35" style="fill:#1A476F"/>
	<circle cx="2868.28" cy="1624.76" r="22.03" style="fill:none;stroke:#1A476F;stroke-width:8.64"/>
	<circle cx="2879.54" cy="1816.83" r="26.35" style="fill:#1A476F"/>
	<circle cx="2879.54" cy="1816.83" r="22.03" style="fill:none;stroke:#1A476F;stroke-width:8.64"/>
	<circle cx="2892.04" cy="1825.12" r="26.35" style="fill:#1A476F"/>
	<circle cx="2892.04" cy="1825.12" r="22.03" style="fill:none;stroke:#1A476F;stroke-width:8.64"/>
	<circle cx="2897.24" cy="1770.30" r="26.35" style="fill:#1A476F"/>
	<circle cx="2897.24" cy="1770.30" r="22.03" style="fill:none;stroke:#1A476F;stroke-width:8.64"/>
	<circle cx="2907.75" cy="1700.50" r="26.35" style="fill:#1A476F"/>
	<circle cx="2907.75" cy="1700.50" r="22.03" style="fill:none;stroke:#1A476F;stroke-width:8.64"/>
	<circle cx="2929.53" cy="1819.06" r="26.35" style="fill:#1A476F"/>
	<circle cx="2929.53" cy="1819.06" r="22.03" style="fill:none;stroke:#1A476F;stroke-width:8.64"/>
	<circle cx="2933.37" cy="1791.21" r="26.35" style="fill:#1A476F"/>
	<circle cx="2933.37" cy="1791.21" r="22.03" style="fill:none;stroke:#1A476F;stroke-width:8.64"/>
	<circle cx="2955.40" cy="1819.55" r="26.35" style="fill:#1A476F"/>
	<circle cx="2955.40" cy="1819.55" r="22.03" style="fill:none;stroke:#1A476F;stroke-width:8.64"/>
	<circle cx="2964.43" cy="1643.82" r="26.35" style="fill:#1A476F"/>
	<circle cx="2964.43" cy="1643.82" r="22.03" style="fill:none;stroke:#1A476F;stroke-width:8.64"/>
	<circle cx="2964.80" cy="1670.55" r="26.35" style="fill:#1A476F"/>
	<circle cx="2964.80" cy="1670.55" r="22.03" style="fill:none;stroke:#1A476F;stroke-width:8.64"/>
	<circle cx="2965.79" cy="1753.22" r="26.35" style="fill:#1A476F"/>
	<circle cx="2965.79" cy="1753.22" r="22.03" style="fill:none;stroke:#1A476F;stroke-width:8.64"/>
	<circle cx="2956.39" cy="1802.60" r="26.35" style="fill:#1A476F"/>
	<circle cx="2956.39" cy="1802.60" r="22.03" style="fill:none;stroke:#1A476F;stroke-width:8.64"/>
	<circle cx="2980.02" cy="1711.64" r="26.35" style="fill:#1A476F"/>
	<circle cx="2980.02" cy="1711.64" r="22.03" style="fill:none;stroke:#1A476F;stroke-width:8.64"/>
	<circle cx="2982.13" cy="1893.68" r="26.35" style="fill:#1A476F"/>
	<circle cx="2982.13" cy="1893.68" r="22.03" style="fill:none;stroke:#1A476F;stroke-width:8.64"/>
	<circle cx="2998.59" cy="1583.43" r="26.35" style="fill:#1A476F"/>
	<circle cx="2998.59" cy="1583.43" r="22.03" style="fill:none;stroke:#1A476F;stroke-width:8.64"/>
	<circle cx="3003.41" cy="1727.23" r="26.35" style="fill:#1A476F"/>
	<circle cx="3003.41" cy="1727.23" r="22.03" style="fill:none;stroke:#1A476F;stroke-width:8.64"/>
	<circle cx="3007.74" cy="1690.73" r="26.35" style="fill:#1A476F"/>
	<circle cx="3007.74" cy="1690.73" r="22.03" style="fill:none;stroke:#1A476F;stroke-width:8.64"/>
	<circle cx="3029.77" cy="1619.07" r="26.35" style="fill:#1A476F"/>
	<circle cx="3029.77" cy="1619.07" r="22.03" style="fill:none;stroke:#1A476F;stroke-width:8.64"/>
	<circle cx="3041.28" cy="1808.42" r="26.35" style="fill:#1A476F"/>
	<circle cx="3041.28" cy="1808.42" r="22.03" style="fill:none;stroke:#1A476F;stroke-width:8.64"/>
	<circle cx="3046.60" cy="1698.52" r="26.35" style="fill:#1A476F"/>
	<circle cx="3046.60" cy="1698.52" r="22.03" style="fill:none;stroke:#1A476F;stroke-width:8.64"/>
	<circle cx="3048.33" cy="1596.42" r="26.35" style="fill:#1A476F"/>
	<circle cx="3048.33" cy="1596.42" r="22.03" style="fill:none;stroke:#1A476F;stroke-width:8.64"/>
	<circle cx="3050.31" cy="1709.41" r="26.35" style="fill:#1A476F"/>
	<circle cx="3050.31" cy="1709.41" r="22.03" style="fill:none;stroke:#1A476F;stroke-width:8.64"/>
	<circle cx="3061.95" cy="1735.77" r="26.35" style="fill:#1A476F"/>
	<circle cx="3061.95" cy="1735.77" r="22.03" style="fill:none;stroke:#1A476F;stroke-width:8.64"/>
	<circle cx="3062.69" cy="1740.72" r="26.35" style="fill:#1A476F"/>
	<circle cx="3062.69" cy="1740.72" r="22.03" style="fill:none;stroke:#1A476F;stroke-width:8.64"/>
	<circle cx="3069.49" cy="1702.61" r="26.35" style="fill:#1A476F"/>
	<circle cx="3069.49" cy="1702.61" r="22.03" style="fill:none;stroke:#1A476F;stroke-width:8.64"/>
	<circle cx="3072.59" cy="1668.45" r="26.35" style="fill:#1A476F"/>
	<circle cx="3072.59" cy="1668.45" r="22.03" style="fill:none;stroke:#1A476F;stroke-width:8.64"/>
	<circle cx="3078.53" cy="1567.96" r="26.35" style="fill:#1A476F"/>
	<circle cx="3078.53" cy="1567.96" r="22.03" style="fill:none;stroke:#1A476F;stroke-width:8.64"/>
	<circle cx="3082.61" cy="1586.90" r="26.35" style="fill:#1A476F"/>
	<circle cx="3082.61" cy="1586.90" r="22.03" style="fill:none;stroke:#1A476F;stroke-width:8.64"/>
	<circle cx="3114.66" cy="1665.36" r="26.35" style="fill:#1A476F"/>
	<circle cx="3114.66" cy="1665.36" r="22.03" style="fill:none;stroke:#1A476F;stroke-width:8.64"/>
	<circle cx="3128.65" cy="1632.81" r="26.35" style="fill:#1A476F"/>
	<circle cx="3128.65" cy="1632.81" r="22.03" style="fill:none;stroke:#1A476F;stroke-width:8.64"/>
	<circle cx="3151.29" cy="1679.46" r="26.35" style="fill:#1A476F"/>
	<circle cx="3151.29" cy="1679.46" r="22.03" style="fill:none;stroke:#1A476F;stroke-width:8.64"/>
	<circle cx="3159.96" cy="1791.96" r="26.35" style="fill:#1A476F"/>
	<circle cx="3159.96" cy="1791.96" r="22.03" style="fill:none;stroke:#1A476F;stroke-width:8.64"/>
	<circle cx="3162.55" cy="1718.32" r="26.35" style="fill:#1A476F"/>
	<circle cx="3162.55" cy="1718.32" r="22.03" style="fill:none;stroke:#1A476F;stroke-width:8.64"/>
	<circle cx="3180.75" cy="1561.77" r="26.35" style="fill:#1A476F"/>
	<circle cx="3180.75" cy="1561.77" r="22.03" style="fill:none;stroke:#1A476F;stroke-width:8.64"/>
	<circle cx="3184.58" cy="1604.59" r="26.35" style="fill:#1A476F"/>
	<circle cx="3184.58" cy="1604.59" r="22.03" style="fill:none;stroke:#1A476F;stroke-width:8.64"/>
	<circle cx="3207.97" cy="1497.55" r="26.35" style="fill:#1A476F"/>
	<circle cx="3207.97" cy="1497.55" r="22.03" style="fill:none;stroke:#1A476F;stroke-width:8.64"/>
	<circle cx="3212.05" cy="1604.35" r="26.35" style="fill:#1A476F"/>
	<circle cx="3212.05" cy="1604.35" r="22.03" style="fill:none;stroke:#1A476F;stroke-width:8.64"/>
	<circle cx="3226.78" cy="1741.84" r="26.35" style="fill:#1A476F"/>
	<circle cx="3226.78" cy="1741.84" r="22.03" style="fill:none;stroke:#1A476F;stroke-width:8.64"/>
	<circle cx="3243.24" cy="1808.79" r="26.35" style="fill:#1A476F"/>
	<circle cx="3243.24" cy="1808.79" r="22.03" style="fill:none;stroke:#1A476F;stroke-width:8.64"/>
	<circle cx="3250.17" cy="1700.50" r="26.35" style="fill:#1A476F"/>
	<circle cx="3250.17" cy="1700.50" r="22.03" style="fill:none;stroke:#1A476F;stroke-width:8.64"/>
	<circle cx="3264.53" cy="1629.96" r="26.35" style="fill:#1A476F"/>
	<circle cx="3264.53" cy="1629.96" r="22.03" style="fill:none;stroke:#1A476F;stroke-width:8.64"/>
	<circle cx="3283.95" cy="1593.21" r="26.35" style="fill:#1A476F"/>
	<circle cx="3283.95" cy="1593.21" r="22.03" style="fill:none;stroke:#1A476F;stroke-width:8.64"/>
	<circle cx="3318.23" cy="1571.30" r="26.35" style="fill:#1A476F"/>
	<circle cx="3318.23" cy="1571.30" r="22.03" style="fill:none;stroke:#1A476F;stroke-width:8.64"/>
	<circle cx="3318.60" cy="1757.06" r="26.35" style="fill:#1A476F"/>
	<circle cx="3318.60" cy="1757.06" r="22.03" style="fill:none;stroke:#1A476F;stroke-width:8.64"/>
	<circle cx="3342.12" cy="1512.52" r="26.35" style="fill:#1A476F"/>
	<circle cx="3342.12" cy="1512.52" r="22.03" style="fill:none;stroke:#1A476F;stroke-width:8.64"/>
	<circle cx="3342.86" cy="1715.35" r="26.35" style="fill:#1A476F"/>
	<circle cx="3342.86" cy="1715.35" r="22.03" style="fill:none;stroke:#1A476F;stroke-width:8.64"/>
	<circle cx="3350.90" cy="1681.44" r="26.35" style="fill:#1A476F"/>
	<circle cx="3350.90" cy="1681.44" r="22.03" style="fill:none;stroke:#1A476F;stroke-width:8.64"/>
	<circle cx="3361.05" cy="1578.36" r="26.35" style="fill:#1A476F"/>
	<circle cx="3361.05" cy="1578.36" r="22.03" style="fill:none;stroke:#1A476F;stroke-width:8.64"/>
	<circle cx="3367.61" cy="1517.47" r="26.35" style="fill:#1A476F"/>
	<circle cx="3367.61" cy="1517.47" r="22.03" style="fill:none;stroke:#1A476F;stroke-width:8.64"/>
	<circle cx="3368.60" cy="1532.94" r="26.35" style="fill:#1A476F"/>
	<circle cx="3368.60" cy="1532.94" r="22.03" style="fill:none;stroke:#1A476F;stroke-width:8.64"/>
	<circle cx="3421.69" cy="1593.70" r="26.35" style="fill:#1A476F"/>
	<circle cx="3421.69" cy="1593.70" r="22.03" style="fill:none;stroke:#1A476F;stroke-width:8.64"/>
	<circle cx="3452.38" cy="1535.66" r="26.35" style="fill:#1A476F"/>
	<circle cx="3452.38" cy="1535.66" r="22.03" style="fill:none;stroke:#1A476F;stroke-width:8.64"/>
	<circle cx="3474.28" cy="1380.47" r="26.35" style="fill:#1A476F"/>
	<circle cx="3474.28" cy="1380.47" r="22.03" style="fill:none;stroke:#1A476F;stroke-width:8.64"/>
	<circle cx="3483.07" cy="1649.52" r="26.35" style="fill:#1A476F"/>
	<circle cx="3483.07" cy="1649.52" r="22.03" style="fill:none;stroke:#1A476F;stroke-width:8.64"/>
	<circle cx="3488.64" cy="1629.47" r="26.35" style="fill:#1A476F"/>
	<circle cx="3488.64" cy="1629.47" r="22.03" style="fill:none;stroke:#1A476F;stroke-width:8.64"/>
	<circle cx="3514.13" cy="1304.74" r="26.35" style="fill:#1A476F"/>
	<circle cx="3514.13" cy="1304.74" r="22.03" style="fill:none;stroke:#1A476F;stroke-width:8.64"/>
	<circle cx="3530.34" cy="1588.01" r="26.35" style="fill:#1A476F"/>
	<circle cx="3530.34" cy="1588.01" r="22.03" style="fill:none;stroke:#1A476F;stroke-width:8.64"/>
	<circle cx="3577.86" cy="1480.96" r="26.35" style="fill:#1A476F"/>
	<circle cx="3577.86" cy="1480.96" r="22.03" style="fill:none;stroke:#1A476F;stroke-width:8.64"/>
	<circle cx="3587.02" cy="1446.56" r="26.35" style="fill:#1A476F"/>
	<circle cx="3587.02" cy="1446.56" r="22.03" style="fill:none;stroke:#1A476F;stroke-width:8.64"/>
	<circle cx="3652.73" cy="1117.50" r="26.35" style="fill:#1A476F"/>
	<circle cx="3652.73" cy="1117.50" r="22.03" style="fill:none;stroke:#1A476F;stroke-width:8.64"/>
	<circle cx="3703.59" cy="1234.94" r="26.35" style="fill:#1A476F"/>
	<circle cx="3703.59" cy="1234.94" r="22.03" style="fill:none;stroke:#1A476F;stroke-width:8.64"/>
	<line x1="390.80" y1="2489.19" x2="390.80" y2="275.35" style="stroke:#000000;stroke-width:5.76"/>
	<line x1="390.80" y1="2425.82" x2="350.83" y2="2425.82" style="stroke:#000000;stroke-width:5.76"/>
	<text x="300.72" y="2425.82" style="font-family:'Helvetica';font-size:99.99px;fill:#000000" transform="rotate(-90 300.72,2425.82)" text-anchor="middle">-1</text>
	<line x1="390.80" y1="1730.08" x2="350.83" y2="1730.08" style="stroke:#000000;stroke-width:5.76"/>
	<text x="300.72" y="1730.08" style="font-family:'Helvetica';font-size:99.99px;fill:#000000" transform="rotate(-90 300.72,1730.08)" text-anchor="middle">0</text>
	<line x1="390.80" y1="1034.46" x2="350.83" y2="1034.46" style="stroke:#000000;stroke-width:5.76"/>
	<text x="300.72" y="1034.46" style="font-family:'Helvetica';font-size:99.99px;fill:#000000" transform="rotate(-90 300.72,1034.46)" text-anchor="middle">1</text>
	<line x1="390.80" y1="338.71" x2="350.83" y2="338.71" style="stroke:#000000;stroke-width:5.76"/>
	<text x="300.72" y="338.71" style="font-family:'Helvetica';font-size:99.99px;fill:#000000" transform="rotate(-90 300.72,338.71)" text-anchor="middle">2</text>
	<text x="190.71" y="1382.33" style="font-family:'Helvetica';font-size:99.99px;fill:#000000" transform="rotate(-90 190.71,1382.33)" text-anchor="middle">Residuals</text>
	<line x1="390.80" y1="2489.19" x2="3859.02" y2="2489.19" style="stroke:#000000;stroke-width:5.76"/>
	<line x1="454.16" y1="2489.19" x2="454.16" y2="2529.16" style="stroke:#000000;stroke-width:5.76"/>
	<text x="454.16" y="2619.14" style="font-family:'Helvetica';font-size:99.99px;fill:#000000" text-anchor="middle">0</text>
	<line x1="1122.41" y1="2489.19" x2="1122.41" y2="2529.16" style="stroke:#000000;stroke-width:5.76"/>
	<text x="1122.41" y="2619.14" style="font-family:'Helvetica';font-size:99.99px;fill:#000000" text-anchor="middle">2</text>
	<line x1="1790.79" y1="2489.19" x2="1790.79" y2="2529.16" style="stroke:#000000;stroke-width:5.76"/>
	<text x="1790.79" y="2619.14" style="font-family:'Helvetica';font-size:99.99px;fill:#000000" text-anchor="middle">4</text>
	<line x1="2459.04" y1="2489.19" x2="2459.04" y2="2529.16" style="stroke:#000000;stroke-width:5.76"/>
	<text x="2459.04" y="2619.14" style="font-family:'Helvetica';font-size:99.99px;fill:#000000" text-anchor="middle">6</text>
	<line x1="3127.41" y1="2489.19" x2="3127.41" y2="2529.16" style="stroke:#000000;stroke-width:5.76"/>
	<text x="3127.41" y="2619.14" style="font-family:'Helvetica';font-size:99.99px;fill:#000000" text-anchor="middle">8</text>
	<line x1="3795.66" y1="2489.19" x2="3795.66" y2="2529.16" style="stroke:#000000;stroke-width:5.76"/>
	<text x="3795.66" y="2619.14" style="font-family:'Helvetica';font-size:99.99px;fill:#000000" text-anchor="middle">10</text>
	<text x="2124.91" y="2729.16" style="font-family:'Helvetica';font-size:99.99px;fill:#000000" text-anchor="middle">lnq</text>
	<text x="2124.91" y="215.98" style="font-family:'Helvetica';font-size:139.96px;fill:#1E2D53" text-anchor="middle">残差与解释变量的散点图</text>
</svg>
