<?xml version="1.0" encoding="UTF-8" standalone="no"?>
<!-- This is a Stata 16.1 generated SVG file (http://www.stata.com) -->

<svg version="1.1" width="5.50in" height="4.00in" viewBox="0 0 3960 2880" xmlns="http://www.w3.org/2000/svg" xmlns:xlink="http://www.w3.org/1999/xlink">
	<desc>Stata Graph - Graph</desc>
	<rect x="0" y="0" width="3960" height="2880" style="fill:#EAF2F3;stroke:none"/>
	<rect x="0.00" y="0.00" width="3959.88" height="2880.00" style="fill:#EAF2F3"/>
	<rect x="2.88" y="2.88" width="3954.12" height="2874.24" style="fill:none;stroke:#EAF2F3;stroke-width:5.76"/>
	<rect x="390.80" y="275.35" width="3468.22" height="2213.83" style="fill:#FFFFFF"/>
	<rect x="393.68" y="278.23" width="3462.46" height="2208.07" style="fill:none;stroke:#FFFFFF;stroke-width:5.76"/>
	<line x1="390.80" y1="2425.82" x2="3859.02" y2="2425.82" style="stroke:#EAF2F3;stroke-width:8.64"/>
	<line x1="390.80" y1="1730.08" x2="3859.02" y2="1730.08" style="stroke:#EAF2F3;stroke-width:8.64"/>
	<line x1="390.80" y1="1034.46" x2="3859.02" y2="1034.46" style="stroke:#EAF2F3;stroke-width:8.64"/>
	<line x1="390.80" y1="338.71" x2="3859.02" y2="338.71" style="stroke:#EAF2F3;stroke-width:8.64"/>
	<circle cx="454.04" cy="1646.79" r="26.35" style="fill:#1A476F"/>
	<circle cx="454.04" cy="1646.79" r="22.03" style="fill:none;stroke:#1A476F;stroke-width:8.64"/>
	<circle cx="748.44" cy="605.16" r="26.35" style="fill:#1A476F"/>
	<circle cx="748.44" cy="605.16" r="22.03" style="fill:none;stroke:#1A476F;stroke-width:8.64"/>
	<circle cx="853.88" cy="471.01" r="26.35" style="fill:#1A476F"/>
	<circle cx="853.88" cy="471.01" r="22.03" style="fill:none;stroke:#1A476F;stroke-width:8.64"/>
	<circle cx="803.63" cy="1197.69" r="26.35" style="fill:#1A476F"/>
	<circle cx="803.63" cy="1197.69" r="22.03" style="fill:none;stroke:#1A476F;stroke-width:8.64"/>
	<circle cx="857.34" cy="1599.27" r="26.35" style="fill:#1A476F"/>
	<circle cx="857.34" cy="1599.27" r="22.03" style="fill:none;stroke:#1A476F;stroke-width:8.64"/>
	<circle cx="1087.89" cy="2406.39" r="26.35" style="fill:#1A476F"/>
	<circle cx="1087.89" cy="2406.39" r="22.03" style="fill:none;stroke:#1A476F;stroke-width:8.64"/>
	<circle cx="1189.11" cy="967.88" r="26.35" style="fill:#1A476F"/>
	<circle cx="1189.11" cy="967.88" r="22.03" style="fill:none;stroke:#1A476F;stroke-width:8.64"/>
	<circle cx="1291.95" cy="1348.30" r="26.35" style="fill:#1A476F"/>
	<circle cx="1291.95" cy="1348.30" r="22.03" style="fill:none;stroke:#1A476F;stroke-width:8.64"/>
	<circle cx="1259.16" cy="1477.50" r="26.35" style="fill:#1A476F"/>
	<circle cx="1259.16" cy="1477.50" r="22.03" style="fill:none;stroke:#1A476F;stroke-width:8.64"/>
	<circle cx="1228.22" cy="1466.85" r="26.35" style="fill:#1A476F"/>
	<circle cx="1228.22" cy="1466.85" r="22.03" style="fill:none;stroke:#1A476F;stroke-width:8.64"/>
	<circle cx="1370.65" cy="1061.19" r="26.35" style="fill:#1A476F"/>
	<circle cx="1370.65" cy="1061.19" r="22.03" style="fill:none;stroke:#1A476F;stroke-width:8.64"/>
	<circle cx="1493.79" cy="1634.79" r="26.35" style="fill:#1A476F"/>
	<circle cx="1493.79" cy="1634.79" r="22.03" style="fill:none;stroke:#1A476F;stroke-width:8.64"/>
	<circle cx="1481.91" cy="2072.13" r="26.35" style="fill:#1A476F"/>
	<circle cx="1481.91" cy="2072.13" r="22.03" style="fill:none;stroke:#1A476F;stroke-width:8.64"/>
	<circle cx="1613.95" cy="2122.38" r="26.35" style="fill:#1A476F"/>
	<circle cx="1613.95" cy="2122.38" r="22.03" style="fill:none;stroke:#1A476F;stroke-width:8.64"/>
	<circle cx="1715.92" cy="2146.76" r="26.35" style="fill:#1A476F"/>
	<circle cx="1715.92" cy="2146.76" r="22.03" style="fill:none;stroke:#1A476F;stroke-width:8.64"/>
	<circle cx="1556.53" cy="1859.65" r="26.35" style="fill:#1A476F"/>
	<circle cx="1556.53" cy="1859.65" r="22.03" style="fill:none;stroke:#1A476F;stroke-width:8.64"/>
	<circle cx="1842.39" cy="2001.84" r="26.35" style="fill:#1A476F"/>
	<circle cx="1842.39" cy="2001.84" r="22.03" style="fill:none;stroke:#1A476F;stroke-width:8.64"/>
	<circle cx="1920.97" cy="2236.73" r="26.35" style="fill:#1A476F"/>
	<circle cx="1920.97" cy="2236.73" r="22.03" style="fill:none;stroke:#1A476F;stroke-width:8.64"/>
	<circle cx="1929.76" cy="2207.15" r="26.35" style="fill:#1A476F"/>
	<circle cx="1929.76" cy="2207.15" r="22.03" style="fill:none;stroke:#1A476F;stroke-width:8.64"/>
	<circle cx="1902.66" cy="1997.14" r="26.35" style="fill:#1A476F"/>
	<circle cx="1902.66" cy="1997.14" r="22.03" style="fill:none;stroke:#1A476F;stroke-width:8.64"/>
	<circle cx="2026.04" cy="1814.23" r="26.35" style="fill:#1A476F"/>
	<circle cx="2026.04" cy="1814.23" r="22.03" style="fill:none;stroke:#1A476F;stroke-width:8.64"/>
	<circle cx="1944.36" cy="1650.88" r="26.35" style="fill:#1A476F"/>
	<circle cx="1944.36" cy="1650.88" r="22.03" style="fill:none;stroke:#1A476F;stroke-width:8.64"/>
	<circle cx="1961.68" cy="1925.36" r="26.35" style="fill:#1A476F"/>
	<circle cx="1961.68" cy="1925.36" r="22.03" style="fill:none;stroke:#1A476F;stroke-width:8.64"/>
	<circle cx="1933.72" cy="2200.10" r="26.35" style="fill:#1A476F"/>
	<circle cx="1933.72" cy="2200.10" r="22.03" style="fill:none;stroke:#1A476F;stroke-width:8.64"/>
	<circle cx="1934.83" cy="1357.95" r="26.35" style="fill:#1A476F"/>
	<circle cx="1934.83" cy="1357.95" r="22.03" style="fill:none;stroke:#1A476F;stroke-width:8.64"/>
	<circle cx="2089.89" cy="2102.33" r="26.35" style="fill:#1A476F"/>
	<circle cx="2089.89" cy="2102.33" r="22.03" style="fill:none;stroke:#1A476F;stroke-width:8.64"/>
	<circle cx="1957.35" cy="2008.15" r="26.35" style="fill:#1A476F"/>
	<circle cx="1957.35" cy="2008.15" r="22.03" style="fill:none;stroke:#1A476F;stroke-width:8.64"/>
	<circle cx="2007.60" cy="1765.97" r="26.35" style="fill:#1A476F"/>
	<circle cx="2007.60" cy="1765.97" r="22.03" style="fill:none;stroke:#1A476F;stroke-width:8.64"/>
	<circle cx="2182.33" cy="2174.97" r="26.35" style="fill:#1A476F"/>
	<circle cx="2182.33" cy="2174.97" r="22.03" style="fill:none;stroke:#1A476F;stroke-width:8.64"/>
	<circle cx="2219.21" cy="2056.05" r="26.35" style="fill:#1A476F"/>
	<circle cx="2219.21" cy="2056.05" r="22.03" style="fill:none;stroke:#1A476F;stroke-width:8.64"/>
	<circle cx="2161.05" cy="1826.85" r="26.35" style="fill:#1A476F"/>
	<circle cx="2161.05" cy="1826.85" r="22.03" style="fill:none;stroke:#1A476F;stroke-width:8.64"/>
	<circle cx="2159.07" cy="1484.55" r="26.35" style="fill:#1A476F"/>
	<circle cx="2159.07" cy="1484.55" r="22.03" style="fill:none;stroke:#1A476F;stroke-width:8.64"/>
	<circle cx="2182.70" cy="1652.24" r="26.35" style="fill:#1A476F"/>
	<circle cx="2182.70" cy="1652.24" r="22.03" style="fill:none;stroke:#1A476F;stroke-width:8.64"/>
	<circle cx="2339.37" cy="1704.83" r="26.35" style="fill:#1A476F"/>
	<circle cx="2339.37" cy="1704.83" r="22.03" style="fill:none;stroke:#1A476F;stroke-width:8.64"/>
	<circle cx="2242.60" cy="1779.33" r="26.35" style="fill:#1A476F"/>
	<circle cx="2242.60" cy="1779.33" r="22.03" style="fill:none;stroke:#1A476F;stroke-width:8.64"/>
	<circle cx="2237.03" cy="1899.50" r="26.35" style="fill:#1A476F"/>
	<circle cx="2237.03" cy="1899.50" r="22.03" style="fill:none;stroke:#1A476F;stroke-width:8.64"/>
	<circle cx="2377.24" cy="1516.36" r="26.35" style="fill:#1A476F"/>
	<circle cx="2377.24" cy="1516.36" r="22.03" style="fill:none;stroke:#1A476F;stroke-width:8.64"/>
	<circle cx="2322.17" cy="2089.09" r="26.35" style="fill:#1A476F"/>
	<circle cx="2322.17" cy="2089.09" r="22.03" style="fill:none;stroke:#1A476F;stroke-width:8.64"/>
	<circle cx="2239.26" cy="1888.73" r="26.35" style="fill:#1A476F"/>
	<circle cx="2239.26" cy="1888.73" r="22.03" style="fill:none;stroke:#1A476F;stroke-width:8.64"/>
	<circle cx="2249.65" cy="1914.35" r="26.35" style="fill:#1A476F"/>
	<circle cx="2249.65" cy="1914.35" r="22.03" style="fill:none;stroke:#1A476F;stroke-width:8.64"/>
	<circle cx="2291.60" cy="1617.59" r="26.35" style="fill:#1A476F"/>
	<circle cx="2291.60" cy="1617.59" r="22.03" style="fill:none;stroke:#1A476F;stroke-width:8.64"/>
	<circle cx="2447.40" cy="1902.47" r="26.35" style="fill:#1A476F"/>
	<circle cx="2447.40" cy="1902.47" r="22.03" style="fill:none;stroke:#1A476F;stroke-width:8.64"/>
	<circle cx="2424.51" cy="2061.24" r="26.35" style="fill:#1A476F"/>
	<circle cx="2424.51" cy="2061.24" r="22.03" style="fill:none;stroke:#1A476F;stroke-width:8.64"/>
	<circle cx="2356.82" cy="1955.56" r="26.35" style="fill:#1A476F"/>
	<circle cx="2356.82" cy="1955.56" r="22.03" style="fill:none;stroke:#1A476F;stroke-width:8.64"/>
	<circle cx="2455.57" cy="2017.19" r="26.35" style="fill:#1A476F"/>
	<circle cx="2455.57" cy="2017.19" r="22.03" style="fill:none;stroke:#1A476F;stroke-width:8.64"/>
	<circle cx="2215.74" cy="1991.45" r="26.35" style="fill:#1A476F"/>
	<circle cx="2215.74" cy="1991.45" r="22.03" style="fill:none;stroke:#1A476F;stroke-width:8.64"/>
	<circle cx="2360.41" cy="1748.77" r="26.35" style="fill:#1A476F"/>
	<circle cx="2360.41" cy="1748.77" r="22.03" style="fill:none;stroke:#1A476F;stroke-width:8.64"/>
	<circle cx="2418.20" cy="1518.46" r="26.35" style="fill:#1A476F"/>
	<circle cx="2418.20" cy="1518.46" r="22.03" style="fill:none;stroke:#1A476F;stroke-width:8.64"/>
	<circle cx="2520.05" cy="1855.69" r="26.35" style="fill:#1A476F"/>
	<circle cx="2520.05" cy="1855.69" r="22.03" style="fill:none;stroke:#1A476F;stroke-width:8.64"/>
	<circle cx="2583.16" cy="1816.21" r="26.35" style="fill:#1A476F"/>
	<circle cx="2583.16" cy="1816.21" r="22.03" style="fill:none;stroke:#1A476F;stroke-width:8.64"/>
	<circle cx="2541.08" cy="1792.20" r="26.35" style="fill:#1A476F"/>
	<circle cx="2541.08" cy="1792.20" r="22.03" style="fill:none;stroke:#1A476F;stroke-width:8.64"/>
	<circle cx="2633.65" cy="1866.58" r="26.35" style="fill:#1A476F"/>
	<circle cx="2633.65" cy="1866.58" r="22.03" style="fill:none;stroke:#1A476F;stroke-width:8.64"/>
	<circle cx="2639.71" cy="1929.94" r="26.35" style="fill:#1A476F"/>
	<circle cx="2639.71" cy="1929.94" r="22.03" style="fill:none;stroke:#1A476F;stroke-width:8.64"/>
	<circle cx="2630.55" cy="1990.70" r="26.35" style="fill:#1A476F"/>
	<circle cx="2630.55" cy="1990.70" r="22.03" style="fill:none;stroke:#1A476F;stroke-width:8.64"/>
	<circle cx="2538.86" cy="1953.21" r="26.35" style="fill:#1A476F"/>
	<circle cx="2538.86" cy="1953.21" r="22.03" style="fill:none;stroke:#1A476F;stroke-width:8.64"/>
	<circle cx="2701.22" cy="1934.15" r="26.35" style="fill:#1A476F"/>
	<circle cx="2701.22" cy="1934.15" r="22.03" style="fill:none;stroke:#1A476F;stroke-width:8.64"/>
	<circle cx="2420.67" cy="1760.40" r="26.35" style="fill:#1A476F"/>
	<circle cx="2420.67" cy="1760.40" r="22.03" style="fill:none;stroke:#1A476F;stroke-width:8.64"/>
	<circle cx="2615.09" cy="1728.97" r="26.35" style="fill:#1A476F"/>
	<circle cx="2615.09" cy="1728.97" r="22.03" style="fill:none;stroke:#1A476F;stroke-width:8.64"/>
	<circle cx="2618.67" cy="1892.82" r="26.35" style="fill:#1A476F"/>
	<circle cx="2618.67" cy="1892.82" r="22.03" style="fill:none;stroke:#1A476F;stroke-width:8.64"/>
	<circle cx="2700.10" cy="2024.98" r="26.35" style="fill:#1A476F"/>
	<circle cx="2700.10" cy="2024.98" r="22.03" style="fill:none;stroke:#1A476F;stroke-width:8.64"/>
	<circle cx="2664.46" cy="1661.89" r="26.35" style="fill:#1A476F"/>
	<circle cx="2664.46" cy="1661.89" r="22.03" style="fill:none;stroke:#1A476F;stroke-width:8.64"/>
	<circle cx="2723.24" cy="1726.86" r="26.35" style="fill:#1A476F"/>
	<circle cx="2723.24" cy="1726.86" r="22.03" style="fill:none;stroke:#1A476F;stroke-width:8.64"/>
	<circle cx="2736.98" cy="1954.32" r="26.35" style="fill:#1A476F"/>
	<circle cx="2736.98" cy="1954.32" r="22.03" style="fill:none;stroke:#1A476F;stroke-width:8.64"/>
	<circle cx="2760.61" cy="1983.28" r="26.35" style="fill:#1A476F"/>
	<circle cx="2760.61" cy="1983.28" r="22.03" style="fill:none;stroke:#1A476F;stroke-width:8.64"/>
	<circle cx="2798.61" cy="1962.12" r="26.35" style="fill:#1A476F"/>
	<circle cx="2798.61" cy="1962.12" r="22.03" style="fill:none;stroke:#1A476F;stroke-width:8.64"/>
	<circle cx="2568.06" cy="1778.47" r="26.35" style="fill:#1A476F"/>
	<circle cx="2568.06" cy="1778.47" r="22.03" style="fill:none;stroke:#1A476F;stroke-width:8.64"/>
	<circle cx="2706.04" cy="1709.41" r="26.35" style="fill:#1A476F"/>
	<circle cx="2706.04" cy="1709.41" r="22.03" style="fill:none;stroke:#1A476F;stroke-width:8.64"/>
	<circle cx="2515.59" cy="1687.51" r="26.35" style="fill:#1A476F"/>
	<circle cx="2515.59" cy="1687.51" r="22.03" style="fill:none;stroke:#1A476F;stroke-width:8.64"/>
	<circle cx="2738.34" cy="1762.38" r="26.35" style="fill:#1A476F"/>
	<circle cx="2738.34" cy="1762.38" r="22.03" style="fill:none;stroke:#1A476F;stroke-width:8.64"/>
	<circle cx="2801.70" cy="2042.56" r="26.35" style="fill:#1A476F"/>
	<circle cx="2801.70" cy="2042.56" r="22.03" style="fill:none;stroke:#1A476F;stroke-width:8.64"/>
	<circle cx="2702.33" cy="1750.99" r="26.35" style="fill:#1A476F"/>
	<circle cx="2702.33" cy="1750.99" r="22.03" style="fill:none;stroke:#1A476F;stroke-width:8.64"/>
	<circle cx="2798.48" cy="2127.33" r="26.35" style="fill:#1A476F"/>
	<circle cx="2798.48" cy="2127.33" r="22.03" style="fill:none;stroke:#1A476F;stroke-width:8.64"/>
	<circle cx="2873.72" cy="1908.16" r="26.35" style="fill:#1A476F"/>
	<circle cx="2873.72" cy="1908.16" r="22.03" style="fill:none;stroke:#1A476F;stroke-width:8.64"/>
	<circle cx="2823.11" cy="1875.98" r="26.35" style="fill:#1A476F"/>
	<circle cx="2823.11" cy="1875.98" r="22.03" style="fill:none;stroke:#1A476F;stroke-width:8.64"/>
	<circle cx="2858.25" cy="1834.40" r="26.35" style="fill:#1A476F"/>
	<circle cx="2858.25" cy="1834.40" r="22.03" style="fill:none;stroke:#1A476F;stroke-width:8.64"/>
	<circle cx="2771.63" cy="1693.82" r="26.35" style="fill:#1A476F"/>
	<circle cx="2771.63" cy="1693.82" r="22.03" style="fill:none;stroke:#1A476F;stroke-width:8.64"/>
	<circle cx="2900.08" cy="1799.26" r="26.35" style="fill:#1A476F"/>
	<circle cx="2900.08" cy="1799.26" r="22.03" style="fill:none;stroke:#1A476F;stroke-width:8.64"/>
	<circle cx="2783.63" cy="1658.30" r="26.35" style="fill:#1A476F"/>
	<circle cx="2783.63" cy="1658.30" r="22.03" style="fill:none;stroke:#1A476F;stroke-width:8.64"/>
	<circle cx="2899.83" cy="2019.79" r="26.35" style="fill:#1A476F"/>
	<circle cx="2899.83" cy="2019.79" r="22.03" style="fill:none;stroke:#1A476F;stroke-width:8.64"/>
	<circle cx="2885.48" cy="1808.66" r="26.35" style="fill:#1A476F"/>
	<circle cx="2885.48" cy="1808.66" r="22.03" style="fill:none;stroke:#1A476F;stroke-width:8.64"/>
	<circle cx="2892.28" cy="1786.76" r="26.35" style="fill:#1A476F"/>
	<circle cx="2892.28" cy="1786.76" r="22.03" style="fill:none;stroke:#1A476F;stroke-width:8.64"/>
	<circle cx="2930.03" cy="1737.75" r="26.35" style="fill:#1A476F"/>
	<circle cx="2930.03" cy="1737.75" r="22.03" style="fill:none;stroke:#1A476F;stroke-width:8.64"/>
	<circle cx="2794.03" cy="1919.55" r="26.35" style="fill:#1A476F"/>
	<circle cx="2794.03" cy="1919.55" r="22.03" style="fill:none;stroke:#1A476F;stroke-width:8.64"/>
	<circle cx="2905.40" cy="1855.44" r="26.35" style="fill:#1A476F"/>
	<circle cx="2905.40" cy="1855.44" r="22.03" style="fill:none;stroke:#1A476F;stroke-width:8.64"/>
	<circle cx="2980.52" cy="1624.76" r="26.35" style="fill:#1A476F"/>
	<circle cx="2980.52" cy="1624.76" r="22.03" style="fill:none;stroke:#1A476F;stroke-width:8.64"/>
	<circle cx="3006.51" cy="1816.83" r="26.35" style="fill:#1A476F"/>
	<circle cx="3006.51" cy="1816.83" r="22.03" style="fill:none;stroke:#1A476F;stroke-width:8.64"/>
	<circle cx="2886.59" cy="1825.12" r="26.35" style="fill:#1A476F"/>
	<circle cx="2886.59" cy="1825.12" r="22.03" style="fill:none;stroke:#1A476F;stroke-width:8.64"/>
	<circle cx="2691.69" cy="1770.30" r="26.35" style="fill:#1A476F"/>
	<circle cx="2691.69" cy="1770.30" r="22.03" style="fill:none;stroke:#1A476F;stroke-width:8.64"/>
	<circle cx="2852.68" cy="1700.50" r="26.35" style="fill:#1A476F"/>
	<circle cx="2852.68" cy="1700.50" r="22.03" style="fill:none;stroke:#1A476F;stroke-width:8.64"/>
	<circle cx="3016.90" cy="1819.06" r="26.35" style="fill:#1A476F"/>
	<circle cx="3016.90" cy="1819.06" r="22.03" style="fill:none;stroke:#1A476F;stroke-width:8.64"/>
	<circle cx="2872.49" cy="1791.21" r="26.35" style="fill:#1A476F"/>
	<circle cx="2872.49" cy="1791.21" r="22.03" style="fill:none;stroke:#1A476F;stroke-width:8.64"/>
	<circle cx="2788.34" cy="1819.55" r="26.35" style="fill:#1A476F"/>
	<circle cx="2788.34" cy="1819.55" r="22.03" style="fill:none;stroke:#1A476F;stroke-width:8.64"/>
	<circle cx="3054.89" cy="1643.82" r="26.35" style="fill:#1A476F"/>
	<circle cx="3054.89" cy="1643.82" r="22.03" style="fill:none;stroke:#1A476F;stroke-width:8.64"/>
	<circle cx="2758.88" cy="1670.55" r="26.35" style="fill:#1A476F"/>
	<circle cx="2758.88" cy="1670.55" r="22.03" style="fill:none;stroke:#1A476F;stroke-width:8.64"/>
	<circle cx="2821.25" cy="1753.22" r="26.35" style="fill:#1A476F"/>
	<circle cx="2821.25" cy="1753.22" r="22.03" style="fill:none;stroke:#1A476F;stroke-width:8.64"/>
	<circle cx="3004.40" cy="1802.60" r="26.35" style="fill:#1A476F"/>
	<circle cx="3004.40" cy="1802.60" r="22.03" style="fill:none;stroke:#1A476F;stroke-width:8.64"/>
	<circle cx="2822.24" cy="1711.64" r="26.35" style="fill:#1A476F"/>
	<circle cx="2822.24" cy="1711.64" r="22.03" style="fill:none;stroke:#1A476F;stroke-width:8.64"/>
	<circle cx="2957.38" cy="1893.68" r="26.35" style="fill:#1A476F"/>
	<circle cx="2957.38" cy="1893.68" r="22.03" style="fill:none;stroke:#1A476F;stroke-width:8.64"/>
	<circle cx="3022.47" cy="1583.43" r="26.35" style="fill:#1A476F"/>
	<circle cx="3022.47" cy="1583.43" r="22.03" style="fill:none;stroke:#1A476F;stroke-width:8.64"/>
	<circle cx="2810.61" cy="1727.23" r="26.35" style="fill:#1A476F"/>
	<circle cx="2810.61" cy="1727.23" r="22.03" style="fill:none;stroke:#1A476F;stroke-width:8.64"/>
	<circle cx="2973.09" cy="1690.73" r="26.35" style="fill:#1A476F"/>
	<circle cx="2973.09" cy="1690.73" r="22.03" style="fill:none;stroke:#1A476F;stroke-width:8.64"/>
	<circle cx="3086.57" cy="1619.07" r="26.35" style="fill:#1A476F"/>
	<circle cx="3086.57" cy="1619.07" r="22.03" style="fill:none;stroke:#1A476F;stroke-width:8.64"/>
	<circle cx="3083.36" cy="1808.42" r="26.35" style="fill:#1A476F"/>
	<circle cx="3083.36" cy="1808.42" r="22.03" style="fill:none;stroke:#1A476F;stroke-width:8.64"/>
	<circle cx="3015.66" cy="1698.52" r="26.35" style="fill:#1A476F"/>
	<circle cx="3015.66" cy="1698.52" r="22.03" style="fill:none;stroke:#1A476F;stroke-width:8.64"/>
	<circle cx="2889.81" cy="1596.42" r="26.35" style="fill:#1A476F"/>
	<circle cx="2889.81" cy="1596.42" r="22.03" style="fill:none;stroke:#1A476F;stroke-width:8.64"/>
	<circle cx="2861.10" cy="1709.41" r="26.35" style="fill:#1A476F"/>
	<circle cx="2861.10" cy="1709.41" r="22.03" style="fill:none;stroke:#1A476F;stroke-width:8.64"/>
	<circle cx="3044.62" cy="1735.77" r="26.35" style="fill:#1A476F"/>
	<circle cx="3044.62" cy="1735.77" r="22.03" style="fill:none;stroke:#1A476F;stroke-width:8.64"/>
	<circle cx="3181.36" cy="1740.72" r="26.35" style="fill:#1A476F"/>
	<circle cx="3181.36" cy="1740.72" r="22.03" style="fill:none;stroke:#1A476F;stroke-width:8.64"/>
	<circle cx="2873.35" cy="1702.61" r="26.35" style="fill:#1A476F"/>
	<circle cx="2873.35" cy="1702.61" r="22.03" style="fill:none;stroke:#1A476F;stroke-width:8.64"/>
	<circle cx="3169.73" cy="1668.45" r="26.35" style="fill:#1A476F"/>
	<circle cx="3169.73" cy="1668.45" r="22.03" style="fill:none;stroke:#1A476F;stroke-width:8.64"/>
	<circle cx="3069.12" cy="1567.96" r="26.35" style="fill:#1A476F"/>
	<circle cx="3069.12" cy="1567.96" r="22.03" style="fill:none;stroke:#1A476F;stroke-width:8.64"/>
	<circle cx="2899.83" cy="1586.90" r="26.35" style="fill:#1A476F"/>
	<circle cx="2899.83" cy="1586.90" r="22.03" style="fill:none;stroke:#1A476F;stroke-width:8.64"/>
	<circle cx="2926.44" cy="1665.36" r="26.35" style="fill:#1A476F"/>
	<circle cx="2926.44" cy="1665.36" r="22.03" style="fill:none;stroke:#1A476F;stroke-width:8.64"/>
	<circle cx="3242.37" cy="1632.81" r="26.35" style="fill:#1A476F"/>
	<circle cx="3242.37" cy="1632.81" r="22.03" style="fill:none;stroke:#1A476F;stroke-width:8.64"/>
	<circle cx="3195.84" cy="1679.46" r="26.35" style="fill:#1A476F"/>
	<circle cx="3195.84" cy="1679.46" r="22.03" style="fill:none;stroke:#1A476F;stroke-width:8.64"/>
	<circle cx="3054.77" cy="1791.96" r="26.35" style="fill:#1A476F"/>
	<circle cx="3054.77" cy="1791.96" r="22.03" style="fill:none;stroke:#1A476F;stroke-width:8.64"/>
	<circle cx="3169.61" cy="1718.32" r="26.35" style="fill:#1A476F"/>
	<circle cx="3169.61" cy="1718.32" r="22.03" style="fill:none;stroke:#1A476F;stroke-width:8.64"/>
	<circle cx="3257.97" cy="1561.77" r="26.35" style="fill:#1A476F"/>
	<circle cx="3257.97" cy="1561.77" r="22.03" style="fill:none;stroke:#1A476F;stroke-width:8.64"/>
	<circle cx="3258.34" cy="1604.59" r="26.35" style="fill:#1A476F"/>
	<circle cx="3258.34" cy="1604.59" r="22.03" style="fill:none;stroke:#1A476F;stroke-width:8.64"/>
	<circle cx="3327.76" cy="1497.55" r="26.35" style="fill:#1A476F"/>
	<circle cx="3327.76" cy="1497.55" r="22.03" style="fill:none;stroke:#1A476F;stroke-width:8.64"/>
	<circle cx="3309.94" cy="1604.35" r="26.35" style="fill:#1A476F"/>
	<circle cx="3309.94" cy="1604.35" r="22.03" style="fill:none;stroke:#1A476F;stroke-width:8.64"/>
	<circle cx="3269.47" cy="1741.84" r="26.35" style="fill:#1A476F"/>
	<circle cx="3269.47" cy="1741.84" r="22.03" style="fill:none;stroke:#1A476F;stroke-width:8.64"/>
	<circle cx="3140.03" cy="1808.79" r="26.35" style="fill:#1A476F"/>
	<circle cx="3140.03" cy="1808.79" r="22.03" style="fill:none;stroke:#1A476F;stroke-width:8.64"/>
	<circle cx="3269.72" cy="1700.50" r="26.35" style="fill:#1A476F"/>
	<circle cx="3269.72" cy="1700.50" r="22.03" style="fill:none;stroke:#1A476F;stroke-width:8.64"/>
	<circle cx="3260.07" cy="1629.96" r="26.35" style="fill:#1A476F"/>
	<circle cx="3260.07" cy="1629.96" r="22.03" style="fill:none;stroke:#1A476F;stroke-width:8.64"/>
	<circle cx="3358.45" cy="1593.21" r="26.35" style="fill:#1A476F"/>
	<circle cx="3358.45" cy="1593.21" r="22.03" style="fill:none;stroke:#1A476F;stroke-width:8.64"/>
	<circle cx="3382.46" cy="1571.30" r="26.35" style="fill:#1A476F"/>
	<circle cx="3382.46" cy="1571.30" r="22.03" style="fill:none;stroke:#1A476F;stroke-width:8.64"/>
	<circle cx="3323.55" cy="1757.06" r="26.35" style="fill:#1A476F"/>
	<circle cx="3323.55" cy="1757.06" r="22.03" style="fill:none;stroke:#1A476F;stroke-width:8.64"/>
	<circle cx="3383.32" cy="1512.52" r="26.35" style="fill:#1A476F"/>
	<circle cx="3383.32" cy="1512.52" r="22.03" style="fill:none;stroke:#1A476F;stroke-width:8.64"/>
	<circle cx="3178.77" cy="1715.35" r="26.35" style="fill:#1A476F"/>
	<circle cx="3178.77" cy="1715.35" r="22.03" style="fill:none;stroke:#1A476F;stroke-width:8.64"/>
	<circle cx="3288.04" cy="1681.44" r="26.35" style="fill:#1A476F"/>
	<circle cx="3288.04" cy="1681.44" r="22.03" style="fill:none;stroke:#1A476F;stroke-width:8.64"/>
	<circle cx="3400.28" cy="1578.36" r="26.35" style="fill:#1A476F"/>
	<circle cx="3400.28" cy="1578.36" r="22.03" style="fill:none;stroke:#1A476F;stroke-width:8.64"/>
	<circle cx="3342.49" cy="1517.47" r="26.35" style="fill:#1A476F"/>
	<circle cx="3342.49" cy="1517.47" r="22.03" style="fill:none;stroke:#1A476F;stroke-width:8.64"/>
	<circle cx="3382.71" cy="1532.94" r="26.35" style="fill:#1A476F"/>
	<circle cx="3382.71" cy="1532.94" r="22.03" style="fill:none;stroke:#1A476F;stroke-width:8.64"/>
	<circle cx="3512.40" cy="1593.70" r="26.35" style="fill:#1A476F"/>
	<circle cx="3512.40" cy="1593.70" r="22.03" style="fill:none;stroke:#1A476F;stroke-width:8.64"/>
	<circle cx="3372.68" cy="1535.66" r="26.35" style="fill:#1A476F"/>
	<circle cx="3372.68" cy="1535.66" r="22.03" style="fill:none;stroke:#1A476F;stroke-width:8.64"/>
	<circle cx="3590.85" cy="1380.47" r="26.35" style="fill:#1A476F"/>
	<circle cx="3590.85" cy="1380.47" r="22.03" style="fill:none;stroke:#1A476F;stroke-width:8.64"/>
	<circle cx="3560.29" cy="1649.52" r="26.35" style="fill:#1A476F"/>
	<circle cx="3560.29" cy="1649.52" r="22.03" style="fill:none;stroke:#1A476F;stroke-width:8.64"/>
	<circle cx="3621.54" cy="1629.47" r="26.35" style="fill:#1A476F"/>
	<circle cx="3621.54" cy="1629.47" r="22.03" style="fill:none;stroke:#1A476F;stroke-width:8.64"/>
	<circle cx="3576.13" cy="1304.74" r="26.35" style="fill:#1A476F"/>
	<circle cx="3576.13" cy="1304.74" r="22.03" style="fill:none;stroke:#1A476F;stroke-width:8.64"/>
	<circle cx="3558.43" cy="1588.01" r="26.35" style="fill:#1A476F"/>
	<circle cx="3558.43" cy="1588.01" r="22.03" style="fill:none;stroke:#1A476F;stroke-width:8.64"/>
	<circle cx="3682.43" cy="1480.96" r="26.35" style="fill:#1A476F"/>
	<circle cx="3682.43" cy="1480.96" r="22.03" style="fill:none;stroke:#1A476F;stroke-width:8.64"/>
	<circle cx="3700.00" cy="1446.56" r="26.35" style="fill:#1A476F"/>
	<circle cx="3700.00" cy="1446.56" r="22.03" style="fill:none;stroke:#1A476F;stroke-width:8.64"/>
	<circle cx="3786.50" cy="1117.50" r="26.35" style="fill:#1A476F"/>
	<circle cx="3786.50" cy="1117.50" r="22.03" style="fill:none;stroke:#1A476F;stroke-width:8.64"/>
	<circle cx="3795.66" cy="1234.94" r="26.35" style="fill:#1A476F"/>
	<circle cx="3795.66" cy="1234.94" r="22.03" style="fill:none;stroke:#1A476F;stroke-width:8.64"/>
	<line x1="390.80" y1="2489.19" x2="390.80" y2="275.35" style="stroke:#000000;stroke-width:5.76"/>
	<line x1="390.80" y1="2425.82" x2="350.83" y2="2425.82" style="stroke:#000000;stroke-width:5.76"/>
	<text x="300.72" y="2425.82" style="font-family:'Helvetica';font-size:99.99px;fill:#000000" transform="rotate(-90 300.72,2425.82)" text-anchor="middle">-1</text>
	<line x1="390.80" y1="1730.08" x2="350.83" y2="1730.08" style="stroke:#000000;stroke-width:5.76"/>
	<text x="300.72" y="1730.08" style="font-family:'Helvetica';font-size:99.99px;fill:#000000" transform="rotate(-90 300.72,1730.08)" text-anchor="middle">0</text>
	<line x1="390.80" y1="1034.46" x2="350.83" y2="1034.46" style="stroke:#000000;stroke-width:5.76"/>
	<text x="300.72" y="1034.46" style="font-family:'Helvetica';font-size:99.99px;fill:#000000" transform="rotate(-90 300.72,1034.46)" text-anchor="middle">1</text>
	<line x1="390.80" y1="338.71" x2="350.83" y2="338.71" style="stroke:#000000;stroke-width:5.76"/>
	<text x="300.72" y="338.71" style="font-family:'Helvetica';font-size:99.99px;fill:#000000" transform="rotate(-90 300.72,338.71)" text-anchor="middle">2</text>
	<text x="190.71" y="1382.33" style="font-family:'Helvetica';font-size:99.99px;fill:#000000" transform="rotate(-90 190.71,1382.33)" text-anchor="middle">Residuals</text>
	<line x1="390.80" y1="2489.19" x2="3859.02" y2="2489.19" style="stroke:#000000;stroke-width:5.76"/>
	<line x1="764.03" y1="2489.19" x2="764.03" y2="2529.16" style="stroke:#000000;stroke-width:5.76"/>
	<text x="764.03" y="2619.14" style="font-family:'Helvetica';font-size:99.99px;fill:#000000" text-anchor="middle">-2</text>
	<line x1="1762.08" y1="2489.19" x2="1762.08" y2="2529.16" style="stroke:#000000;stroke-width:5.76"/>
	<text x="1762.08" y="2619.14" style="font-family:'Helvetica';font-size:99.99px;fill:#000000" text-anchor="middle">0</text>
	<line x1="2760.12" y1="2489.19" x2="2760.12" y2="2529.16" style="stroke:#000000;stroke-width:5.76"/>
	<text x="2760.12" y="2619.14" style="font-family:'Helvetica';font-size:99.99px;fill:#000000" text-anchor="middle">2</text>
	<line x1="3758.16" y1="2489.19" x2="3758.16" y2="2529.16" style="stroke:#000000;stroke-width:5.76"/>
	<text x="3758.16" y="2619.14" style="font-family:'Helvetica';font-size:99.99px;fill:#000000" text-anchor="middle">4</text>
	<text x="2124.91" y="2729.16" style="font-family:'Helvetica';font-size:99.99px;fill:#000000" text-anchor="middle">Fitted values</text>
	<text x="2124.91" y="215.98" style="font-family:'Helvetica';font-size:139.96px;fill:#1E2D53" text-anchor="middle">残差与拟合值的散点图</text>
</svg>
